<svg width="137" height="20" viewBox="0 0 137 20" fill="none" xmlns="http://www.w3.org/2000/svg">
<path fill-rule="evenodd" clip-rule="evenodd" d="M9.88588 1.01502C11.2378 0.981872 12.7393 1.40117 13.6859 1.94002C14.2335 2.22647 14.6905 2.55937 15.1809 2.97502C15.2953 3.08662 15.4094 3.18932 15.5309 3.30502C15.5153 3.32662 15.469 3.32797 15.4509 3.34502C15.3064 3.39757 15.1834 3.45912 15.0409 3.51002C14.9531 3.54992 14.8689 3.58472 14.7659 3.62502C14.6374 3.50202 14.5054 3.38762 14.3709 3.29002C14.091 3.05512 13.8111 2.88672 13.4909 2.69002C12.6517 2.21832 11.6391 1.86867 10.4809 1.78502C8.38396 1.67022 6.69477 2.36132 5.33092 3.53002C5.29907 3.56637 5.26577 3.59272 5.23092 3.62502C5.10547 3.52862 4.30167 3.35212 4.54592 3.23007C5.19727 2.60562 5.85722 2.15852 6.57092 1.80502C7.44697 1.36662 8.68496 1.02687 9.88588 1.01502Z" fill="#F3F4F6"/>
<mask id="mask0_16_6102" style="mask-type:luminance" maskUnits="userSpaceOnUse" x="4" y="1" width="12" height="3">
<path fill-rule="evenodd" clip-rule="evenodd" d="M9.88588 1.01502C11.2378 0.981872 12.7393 1.40117 13.6859 1.94002C14.2335 2.22647 14.6905 2.55937 15.1809 2.97502C15.2953 3.08662 15.4094 3.18932 15.5309 3.30502C15.5153 3.32662 15.469 3.32797 15.4509 3.34502C15.3064 3.39757 15.1834 3.45912 15.0409 3.51002C14.9531 3.54992 14.8689 3.58472 14.7659 3.62502C14.6374 3.50202 14.5054 3.38762 14.3709 3.29002C14.091 3.05512 13.8111 2.88672 13.4909 2.69002C12.6517 2.21832 11.6391 1.86867 10.4809 1.78502C8.38396 1.67022 6.69477 2.36132 5.33092 3.53002C5.29907 3.56637 5.26577 3.59272 5.23092 3.62502C5.10547 3.52862 4.30167 3.35212 4.54592 3.23007C5.19727 2.60562 5.85722 2.15852 6.57092 1.80502C7.44697 1.36662 8.68496 1.02687 9.88588 1.01502Z" fill="white"/>
</mask>
<g mask="url(#mask0_16_6102)">
<path d="M9.88732 1.01486L9.89557 1.84815L9.90165 1.84809L9.90774 1.84794L9.88732 1.01486ZM13.6873 1.93986L13.2751 2.66408L13.288 2.67141L13.3012 2.67827L13.6873 1.93986ZM15.1823 2.97486L15.7642 2.37834L15.7434 2.35799L15.7212 2.33914L15.1823 2.97486ZM15.5323 3.30486L16.2079 3.79276L16.6339 3.20291L16.1069 2.70125L15.5323 3.30486ZM15.4523 3.34486L15.7372 4.12801L15.8981 4.06948L16.0229 3.95222L15.4523 3.34486ZM15.0423 3.50986L14.762 2.72511L14.7292 2.73684L14.6974 2.75126L15.0423 3.50986ZM14.7673 3.62486L14.1912 4.22685L14.5756 4.59484L15.0712 4.40085L14.7673 3.62486ZM14.3723 3.28986L13.8367 3.92818L13.8591 3.94702L13.8828 3.96423L14.3723 3.28986ZM13.4923 2.68986L13.9285 1.97976L13.9147 1.97131L13.9007 1.96341L13.4923 2.68986ZM10.4823 1.78486L10.5424 0.953681L10.5352 0.953165L10.5279 0.952765L10.4823 1.78486ZM5.33235 3.52986L4.79011 2.89706L4.74485 2.93585L4.70558 2.98067L5.33235 3.52986ZM5.23235 3.62486L4.72459 4.28563L5.28265 4.71446L5.79882 4.23605L5.23235 3.62486ZM4.54735 3.22991L4.91985 3.97535L5.03285 3.91888L5.12405 3.83145L4.54735 3.22991ZM6.57235 1.80486L6.94222 2.55161L6.94529 2.55008L6.57235 1.80486ZM9.88732 1.01486L9.90774 1.84794C11.1061 1.81855 12.4582 2.19911 13.2751 2.66408L13.6873 1.93986L14.0996 1.21563C13.0232 0.602904 11.3723 0.144855 9.8669 0.18177L9.88732 1.01486ZM13.6873 1.93986L13.3012 2.67827C13.7772 2.92733 14.1827 3.21998 14.6436 3.61056L15.1823 2.97486L15.7212 2.33914C15.2012 1.89843 14.6927 1.52528 14.0736 1.20143L13.6873 1.93986ZM15.1823 2.97486L14.6004 3.57136C14.7128 3.68101 14.8647 3.81984 14.9578 3.90846L15.5323 3.30486L16.1069 2.70125C15.9569 2.55846 15.8807 2.49189 15.7642 2.37834L15.1823 2.97486ZM15.5323 3.30486L14.8568 2.81695C14.911 2.74189 14.9697 2.68779 15.0187 2.65028C15.0672 2.61326 15.1108 2.58873 15.1411 2.57351C15.1715 2.55817 15.1964 2.54826 15.2102 2.54305C15.2176 2.54026 15.2235 2.53817 15.2272 2.53687C15.231 2.53559 15.2336 2.53475 15.2339 2.53462C15.2345 2.53444 15.2342 2.53454 15.2339 2.53462C15.2326 2.53505 15.2329 2.53496 15.2307 2.53565C15.2284 2.53641 15.2235 2.53801 15.2178 2.5399C15.2072 2.54346 15.1857 2.55074 15.16 2.56105C15.1346 2.57125 15.0956 2.58811 15.0508 2.61335C15.0064 2.63841 14.9452 2.67798 14.8818 2.73748L15.4523 3.34486L16.0229 3.95222C15.9642 4.00746 15.9082 4.04326 15.8699 4.0649C15.8312 4.08671 15.7989 4.10051 15.7807 4.10785C15.7621 4.11529 15.7482 4.11993 15.7452 4.1209C15.7435 4.1215 15.7424 4.12182 15.744 4.12131C15.7446 4.12114 15.7489 4.11974 15.7527 4.1185C15.7622 4.1154 15.8227 4.09631 15.8906 4.06213C15.9572 4.0286 16.0943 3.95007 16.2079 3.79276L15.5323 3.30486ZM15.4523 3.34486L15.1676 2.5617C15.071 2.5968 14.9838 2.63418 14.9207 2.66103C14.852 2.69022 14.8069 2.70905 14.762 2.72511L15.0423 3.50986L15.3227 4.2946C15.4202 4.25976 15.508 4.22236 15.5726 4.19491C15.6427 4.16513 15.6892 4.14546 15.7372 4.12801L15.4523 3.34486ZM15.0423 3.50986L14.6974 2.75126C14.6277 2.78293 14.5582 2.81181 14.4636 2.84886L14.7673 3.62486L15.0712 4.40085C15.1824 4.3573 15.2814 4.31657 15.3873 4.26845L15.0423 3.50986ZM14.7673 3.62486L15.3436 3.02286C15.1968 2.88235 15.0354 2.74145 14.8619 2.61547L14.3723 3.28986L13.8828 3.96423C13.9782 4.03346 14.0809 4.12136 14.1912 4.22685L14.7673 3.62486ZM14.3723 3.28986L14.9081 2.65152C14.5722 2.36961 14.2363 2.16881 13.9285 1.97976L13.4923 2.68986L13.0562 3.39994C13.3889 3.60429 13.6127 3.7403 13.8367 3.92818L14.3723 3.28986ZM13.4923 2.68986L13.9007 1.96341C12.9649 1.43744 11.8344 1.047 10.5424 0.953681L10.4823 1.78486L10.4223 2.61602C11.4468 2.69001 12.3414 2.99886 13.084 3.4163L13.4923 2.68986ZM10.4823 1.78486L10.5279 0.952765C8.19875 0.825253 6.30276 1.60086 4.79011 2.89706L5.33235 3.52986L5.8746 4.16264C7.08964 3.12145 8.57207 2.51486 10.4368 2.61694L10.4823 1.78486ZM5.33235 3.52986L4.70558 2.98067C4.7188 2.96558 4.72802 2.95761 4.72249 2.96264C4.71866 2.96612 4.71508 2.9693 4.70428 2.9789C4.69522 2.98696 4.68123 2.99943 4.66588 3.01366L5.23235 3.62486L5.79882 4.23605C5.8009 4.23412 5.80414 4.23118 5.81211 4.22409C5.81836 4.21853 5.83162 4.20679 5.84446 4.1951C5.87225 4.1698 5.91405 4.13047 5.95912 4.07903L5.33235 3.52986ZM5.23235 3.62486L5.74011 2.96408C5.63355 2.88219 5.52103 2.83456 5.48379 2.81867C5.42717 2.79453 5.36787 2.77263 5.31957 2.7553C5.20284 2.7134 5.13365 2.69118 5.04983 2.65901C5.0135 2.64506 4.99349 2.63625 4.98518 2.63225C4.96767 2.62381 5.00675 2.63979 5.06194 2.68502C5.09035 2.70831 5.15286 2.76327 5.21119 2.85448C5.27235 2.95013 5.3479 3.11746 5.33287 3.33531C5.30142 3.79125 4.94 3.96527 4.91985 3.97535L4.54735 3.22991L4.17485 2.48446C4.09363 2.52504 3.7039 2.73128 3.67015 3.22061C3.63878 3.67546 3.9548 3.93255 4.00546 3.97407C4.16869 4.10785 4.37774 4.18626 4.4526 4.21499C4.55488 4.25425 4.6949 4.30186 4.75652 4.32397C4.7974 4.33865 4.81957 4.34731 4.82997 4.35175C4.85975 4.36445 4.7998 4.34341 4.72459 4.28563L5.23235 3.62486ZM4.54735 3.22991L5.12405 3.83145C5.71167 3.26811 6.30119 2.86912 6.94222 2.55161L6.57235 1.80486L6.20248 1.0581C5.41612 1.44759 4.68573 1.94281 3.97065 2.62836L4.54735 3.22991ZM6.57235 1.80486L6.94529 2.55008C7.71455 2.16512 8.8284 1.85867 9.89557 1.84815L9.88732 1.01486L9.87915 0.18156C8.5444 0.19473 7.18226 0.567784 6.19942 1.05962L6.57235 1.80486Z" fill="#F3F4F6"/>
</g>
<path d="M7.89422 5.17985L8.03094 5.41585C8.28579 5.87862 8.14174 5.76044 8.51925 5.61442C9.41675 5.16206 10.7769 5.21195 11.6694 5.71452C11.6868 5.72658 11.697 5.73715 11.7142 5.73975C11.7494 5.7662 11.7686 5.7815 11.7842 5.72998C11.8965 5.54753 12.0021 5.36353 12.0999 5.18473C12.4875 5.01539 13.1244 4.7641 13.4948 4.60449C14.7022 4.11537 16.0072 3.56134 17.2896 3.04443C17.3811 3.00117 17.4827 2.95479 17.5744 2.92969C17.6491 2.96289 17.6898 3.00114 17.7599 3.02979C18.0573 3.20852 18.3616 3.384 18.6592 3.5498C18.7052 3.5607 18.5717 3.60535 18.5746 3.6149C18.5089 3.64357 18.4531 3.68487 18.3849 3.715C18.2056 3.81405 18.0299 3.91367 17.8494 4.00472C16.2683 4.87048 15.0133 5.55428 13.5697 6.33464C13.5433 6.36027 13.514 6.35859 13.4899 6.38509C13.4333 6.39829 13.4557 6.42508 13.4899 6.45508C13.5958 6.62735 13.7262 6.83041 13.8293 7.05973C13.9807 6.97263 14.1461 6.87435 14.2948 6.7749C15.7478 5.90224 17.4441 4.84232 18.8545 3.99495C18.8673 3.9795 18.8831 3.9759 18.9049 3.96485V5.22949C18.8548 5.27239 18.8014 5.30324 18.7544 5.34994C18.2674 5.7169 17.7815 6.09136 17.2993 6.46973C16.2715 7.25246 15.2431 8.04719 14.2199 8.83955C13.2173 8.83955 13.7432 8.70913 13.4744 9.75013C13.2721 10.5369 12.7988 11.3145 12.0194 11.8449C11.9583 11.8905 11.8848 11.9343 11.8143 11.98C11.9052 12.1165 11.9646 12.2535 12.0543 12.3852C12.0773 12.4476 12.1317 12.4835 12.0999 12.5651C12.0054 13.2727 11.9026 14.0816 11.7997 14.8047C11.6949 15.6562 11.5709 16.4847 11.4693 17.3201C11.2945 18.729 11.4458 18.2207 10.2298 18.9852C10.2574 17.8338 10.2918 16.6853 10.3145 15.5249C10.3441 14.7055 10.3531 13.872 10.3796 13.0395C10.1923 13.057 10.002 13.056 9.80417 13.055C9.74867 13.0424 9.68375 13.0475 9.6195 13.0395C9.612 14.9556 9.82617 17.2045 9.70984 18.955C9.50467 18.8214 9.29059 18.72 9.08967 18.5897C8.9815 18.5335 8.87434 18.472 8.76984 18.405C8.72784 18.3911 8.707 18.367 8.66492 18.3496C8.66 18.2948 8.65625 18.2383 8.6445 18.1999C8.47367 16.8413 8.28078 15.5077 8.10988 14.1447C8.03639 13.6338 7.97054 13.1366 7.90479 12.6099C7.84775 12.474 7.97691 12.3405 8.04477 12.22C8.17122 11.9404 8.25451 12.0454 7.98943 11.8701C7.73258 11.7044 7.42505 11.4357 7.2147 11.1645C6.67901 10.5054 6.40903 9.80755 6.39438 8.83955C6.17599 8.81388 5.89628 8.89771 5.71974 8.7948C5.45751 8.59088 5.19198 8.3808 4.92465 8.18522C4.38955 7.75727 3.83907 7.35622 3.30437 6.92952C2.76433 6.52035 2.22912 6.11043 1.69467 5.6901C1.51352 5.56679 1.34613 5.41455 1.16489 5.28971C0.986945 4.95502 1.14649 4.38284 1.0949 3.96485C2.34394 4.71666 3.7043 5.56645 5.05486 6.3802C5.4151 6.60558 5.78029 6.82997 6.13478 7.0402C6.1907 7.11131 6.21716 6.90273 6.2544 6.88476C6.3053 6.77342 6.38354 6.66098 6.44484 6.54948C6.47843 6.51514 6.49909 6.4629 6.52947 6.42985C6.55712 6.40485 6.52751 6.38345 6.49936 6.3802C6.42549 6.33037 6.34519 6.29895 6.26987 6.25C6.07089 6.15096 5.89074 6.03668 5.68963 5.93994C4.56633 5.31649 3.72682 4.87438 2.71437 4.31478C2.36751 4.1341 1.86548 3.84696 1.48471 3.6499C1.43992 3.61395 1.39238 3.60687 1.34962 3.57015C1.60692 3.35925 2.09135 3.1388 2.42465 2.9248C4.24768 3.67635 6.07119 4.4283 7.89422 5.17985ZM9.85959 6.215C7.94209 6.31007 6.745 8.34555 7.57928 10.0594C8.48309 11.9149 11.1312 12.1086 12.2546 10.2995C13.4068 8.45413 11.9717 6.11476 9.85959 6.215Z" fill="#F9FAFB"/>
<path fill-rule="evenodd" clip-rule="evenodd" d="M2.44467 6.81006C3.38837 7.51411 3.02922 7.11216 2.95467 8.26506C2.90312 8.94646 2.94947 9.66296 3.09467 10.35C3.54872 12.5098 5.13167 14.3608 6.90467 15.185C8.07437 15.8003 7.80057 15.1505 7.97967 16.39C4.13557 15.4099 1.26257 11.2675 2.44467 6.81006Z" fill="#F3F4F6"/>
<mask id="mask1_16_6102" style="mask-type:luminance" maskUnits="userSpaceOnUse" x="2" y="6" width="6" height="11">
<path fill-rule="evenodd" clip-rule="evenodd" d="M2.44467 6.81006C3.38837 7.51411 3.02922 7.11216 2.95467 8.26506C2.90312 8.94646 2.94947 9.66296 3.09467 10.35C3.54872 12.5098 5.13167 14.3608 6.90467 15.185C8.07437 15.8003 7.80057 15.1505 7.97967 16.39C4.13557 15.4099 1.26257 11.2675 2.44467 6.81006Z" fill="white"/>
</mask>
<g mask="url(#mask1_16_6102)">
<path d="M2.44299 6.81021L2.9413 6.14227L1.95343 5.40527L1.6375 6.59659L2.44299 6.81021ZM2.95299 8.26521L3.784 8.32807L3.78458 8.31898L2.95299 8.26521ZM3.09299 10.3502L3.90849 10.1788L3.90831 10.1779L3.09299 10.3502ZM6.90299 15.1852L7.2909 14.4477L7.27282 14.4382L7.25431 14.4295L6.90299 15.1852ZM7.97799 16.3902L7.77208 17.1977L8.98116 17.506L8.80274 16.271L7.97799 16.3902ZM2.44299 6.81021L1.94467 7.47814C2.06713 7.56949 2.16953 7.64371 2.24764 7.70071C2.33097 7.76151 2.37678 7.79569 2.40652 7.8198C2.43992 7.84687 2.41331 7.8301 2.37623 7.78151C2.32491 7.71425 2.27286 7.61284 2.25491 7.48756C2.24052 7.3871 2.25622 7.31859 2.25297 7.33665C2.24837 7.36232 2.24385 7.3781 2.2231 7.47367C2.18734 7.63835 2.14336 7.8717 2.12139 8.21143L2.95299 8.26521L3.78458 8.31898C3.79989 8.08226 3.82876 7.93352 3.85181 7.82731C3.86047 7.78744 3.88186 7.69556 3.89344 7.63101C3.90639 7.55883 3.92856 7.41749 3.90474 7.25122C3.84658 6.84524 3.56972 6.61724 3.45605 6.52509C3.34318 6.4336 3.13816 6.28914 2.9413 6.14227L2.44299 6.81021ZM2.95299 8.26521L2.12203 8.20234C2.06452 8.96252 2.11615 9.75819 2.27766 10.5225L3.09299 10.3502L3.90831 10.1779C3.77943 9.56802 3.73841 8.93069 3.784 8.32807L2.95299 8.26521ZM3.09299 10.3502L2.27748 10.5217C2.78742 12.9473 4.54887 15.0097 6.55167 15.9409L6.90299 15.1852L7.25431 14.4295C5.71111 13.7121 4.30665 12.0726 3.90849 10.1788L3.09299 10.3502ZM6.90299 15.1852L6.51507 15.9228C6.85308 16.1005 7.10092 16.1939 7.28705 16.2529C7.33132 16.267 7.36992 16.2784 7.40025 16.2874C7.43428 16.2973 7.44892 16.3015 7.46238 16.3057C7.50229 16.3181 7.42632 16.3002 7.33729 16.2385C7.2111 16.151 7.13292 16.0339 7.09348 15.935C7.06775 15.8705 7.06643 15.8311 7.0742 15.8848C7.08094 15.9314 7.08729 15.9903 7.10066 16.1046C7.11307 16.2108 7.12936 16.3443 7.15322 16.5094L7.97799 16.3902L8.80274 16.271C8.78182 16.1263 8.76749 16.0089 8.75607 15.9109C8.74549 15.8211 8.73474 15.7226 8.72366 15.6462C8.70907 15.5449 8.66524 15.131 8.28663 14.8686C8.14753 14.7723 8.00601 14.7294 7.95747 14.7143C7.92671 14.7047 7.89141 14.6945 7.86886 14.6879C7.8426 14.6802 7.81796 14.6729 7.79142 14.6644C7.69432 14.6336 7.53774 14.5775 7.2909 14.4477L6.90299 15.1852ZM7.97799 16.3902L8.18389 15.5827C4.75979 14.7096 2.19267 11.005 3.24847 7.02381L2.44299 6.81021L1.6375 6.59659C0.329097 11.5303 3.50798 16.1104 7.77208 17.1977L7.97799 16.3902Z" fill="#F3F4F6"/>
</g>
<path fill-rule="evenodd" clip-rule="evenodd" d="M17.5545 6.81006C18.569 10.7931 16.5205 14.6333 12.8895 16.1C12.713 16.1735 12.4155 16.2815 12.2095 16.335C12.1646 16.3521 12.0867 16.3725 12.0195 16.39C12.019 16.3468 12.0335 16.3195 12.0295 16.28C12.0641 16.0931 12.0865 15.8223 12.1245 15.605C12.1278 15.535 12.2825 15.541 12.3095 15.51C13.5352 15.1048 14.7959 14.231 15.6895 13.025C16.6252 11.7241 17.1926 10.1428 17.0345 8.17506C17.0081 7.99621 16.9918 7.76351 16.9445 7.56006C16.9547 7.46936 16.863 7.35446 16.9245 7.28506C17.1427 7.13406 17.3278 6.96136 17.5545 6.81006Z" fill="#F3F4F6"/>
<mask id="mask2_16_6102" style="mask-type:luminance" maskUnits="userSpaceOnUse" x="12" y="6" width="6" height="11">
<path fill-rule="evenodd" clip-rule="evenodd" d="M17.5545 6.81006C18.569 10.7931 16.5205 14.6333 12.8895 16.1C12.713 16.1735 12.4155 16.2815 12.2095 16.335C12.1646 16.3521 12.0867 16.3725 12.0195 16.39C12.019 16.3468 12.0335 16.3195 12.0295 16.28C12.0641 16.0931 12.0865 15.8223 12.1245 15.605C12.1278 15.535 12.2825 15.541 12.3095 15.51C13.5352 15.1048 14.7959 14.231 15.6895 13.025C16.6252 11.7241 17.1926 10.1428 17.0345 8.17506C17.0081 7.99621 16.9918 7.76351 16.9445 7.56006C16.9547 7.46936 16.863 7.35446 16.9245 7.28506C17.1427 7.13406 17.3278 6.96136 17.5545 6.81006Z" fill="white"/>
</mask>
<g mask="url(#mask2_16_6102)">
<path d="M17.5558 6.80999L18.3634 6.6043L18.0728 5.46338L17.0934 6.11675L17.5558 6.80999ZM12.8908 16.1L12.5787 15.3273L12.571 15.3305L12.8908 16.1ZM12.2108 16.335L12.0012 15.5285L11.9575 15.5398L11.9153 15.5558L12.2108 16.335ZM12.0208 16.39L11.1876 16.3996L11.1999 17.4668L12.2323 17.1961L12.0208 16.39ZM12.0308 16.28L11.2114 16.1285L11.1901 16.2441L11.2015 16.3611L12.0308 16.28ZM12.1258 15.605L12.9466 15.7488L12.9558 15.6966L12.9583 15.6436L12.1258 15.605ZM12.3108 15.51L12.0492 14.7188L11.8327 14.7904L11.6829 14.9621L12.3108 15.51ZM15.6908 13.025L16.3604 13.5211L16.3639 13.5164L16.3674 13.5116L15.6908 13.025ZM17.0358 8.17499L17.8665 8.10826L17.8643 8.08056L17.8602 8.05307L17.0358 8.17499ZM16.9458 7.55999L16.1176 7.46731L16.1018 7.60922L16.1341 7.74832L16.9458 7.55999ZM16.9258 7.28499L16.4516 6.59979L16.3693 6.65674L16.3028 6.73155L16.9258 7.28499ZM17.5558 6.80999L16.7483 7.01567C17.6585 10.589 15.8283 14.0146 12.5787 15.3273L12.8908 16.1L13.203 16.8726C17.2152 15.2519 19.4822 10.9971 18.3634 6.6043L17.5558 6.80999ZM12.8908 16.1L12.571 15.3305C12.4151 15.3953 12.1566 15.4881 12.0012 15.5285L12.2108 16.335L12.4205 17.1416C12.6771 17.0748 13.0134 16.9515 13.2106 16.8695L12.8908 16.1ZM12.2108 16.335L11.9153 15.5558C11.9253 15.5521 11.9292 15.551 11.9234 15.5528C11.9186 15.5543 11.9106 15.5567 11.8986 15.5601C11.8736 15.5671 11.845 15.5746 11.8094 15.5839L12.0208 16.39L12.2323 17.1961C12.2771 17.1843 12.4094 17.151 12.5064 17.1141L12.2108 16.335ZM12.0208 16.39L12.8541 16.3804C12.855 16.4508 12.8418 16.5119 12.8476 16.4791C12.852 16.4545 12.8741 16.3408 12.8602 16.199L12.0308 16.28L11.2015 16.3611C11.1991 16.3361 11.1981 16.3124 11.1981 16.2901C11.1983 16.268 11.1995 16.2485 11.2009 16.2324C11.2023 16.2166 11.2041 16.2042 11.2051 16.1968C11.2062 16.19 11.207 16.1856 11.2066 16.188C11.2065 16.1885 11.2064 16.1891 11.2062 16.1901C11.2061 16.1911 11.2057 16.1926 11.2055 16.1941C11.205 16.1971 11.2041 16.2017 11.2032 16.207C11.2015 16.2175 11.1989 16.2331 11.1965 16.2517C11.1914 16.2904 11.1869 16.3406 11.1876 16.3996L12.0208 16.39ZM12.0308 16.28L12.8503 16.4315C12.873 16.3086 12.8903 16.1672 12.9041 16.0565C12.9193 15.9331 12.932 15.8329 12.9466 15.7488L12.1258 15.605L11.305 15.4612C11.2817 15.5942 11.2641 15.7381 11.2501 15.8512C11.2345 15.977 11.2232 16.0645 11.2114 16.1285L12.0308 16.28ZM12.1258 15.605L12.9583 15.6436C12.9511 15.7984 12.8988 15.9414 12.8176 16.0582C12.7419 16.1668 12.6557 16.2324 12.5991 16.2684C12.5422 16.3045 12.4941 16.3241 12.4696 16.3332C12.4436 16.3429 12.4249 16.3478 12.4206 16.349C12.4166 16.35 12.4149 16.3503 12.4273 16.3475C12.4341 16.3459 12.4593 16.3403 12.4853 16.3334C12.5091 16.3271 12.5626 16.3122 12.6246 16.2856C12.6571 16.2716 12.7026 16.2499 12.7532 16.2175C12.803 16.1857 12.8717 16.1347 12.9388 16.0578L12.3108 15.51L11.6829 14.9621C11.8011 14.8267 11.9306 14.7698 11.966 14.7546C12.0142 14.7338 12.0513 14.7241 12.0567 14.7227C12.0644 14.7207 12.0693 14.7196 12.0553 14.7229C12.0468 14.7248 12.0235 14.7301 11.9982 14.7367C11.9632 14.7459 11.8364 14.7784 11.7056 14.8615C11.6335 14.9072 11.5346 14.9841 11.4497 15.1059C11.3592 15.2359 11.3014 15.3941 11.2934 15.5664L12.1258 15.605ZM12.3108 15.51L12.5725 16.3012C13.9616 15.8418 15.3646 14.8648 16.3604 13.5211L15.6908 13.025L15.0213 12.5288C14.2297 13.597 13.1114 14.3676 12.0492 14.7188L12.3108 15.51ZM15.6908 13.025L16.3674 13.5116C17.406 12.0673 18.042 10.2928 17.8665 8.10826L17.0358 8.17499L16.2052 8.2417C16.3458 9.99255 15.8469 11.3807 15.0143 12.5385L15.6908 13.025ZM17.0358 8.17499L17.8602 8.05307C17.8485 7.9738 17.8135 7.61257 17.7576 7.37165L16.9458 7.55999L16.1341 7.74832C16.1726 7.9143 16.1703 8.01848 16.2115 8.2969L17.0358 8.17499ZM16.9458 7.55999L17.774 7.65266C17.784 7.56351 17.7799 7.48595 17.7729 7.42682C17.7659 7.36796 17.7549 7.31861 17.7463 7.28445C17.7378 7.25071 17.7289 7.22161 17.7244 7.20693C17.7196 7.19114 17.7223 7.20017 17.7188 7.1889C17.7176 7.18484 17.7174 7.18405 17.7176 7.1848C17.7177 7.18518 17.7223 7.20104 17.7269 7.22544C17.7315 7.24975 17.7383 7.2946 17.7376 7.3529C17.7371 7.4127 17.7286 7.493 17.6978 7.5829C17.6661 7.6756 17.6159 7.76301 17.5489 7.83843L16.9258 7.28499L16.3028 6.73155C16.1251 6.93155 16.0729 7.1609 16.0711 7.33605C16.0696 7.48519 16.1046 7.60599 16.1155 7.6442C16.1218 7.66625 16.1299 7.69204 16.1311 7.6959C16.1341 7.70598 16.1327 7.7017 16.1304 7.69257C16.1279 7.68268 16.1037 7.59239 16.1176 7.46731L16.9458 7.55999ZM16.9258 7.28499L17.4001 7.97019C17.5366 7.87577 17.6607 7.77581 17.7561 7.70001C17.8586 7.61857 17.9371 7.55745 18.0183 7.50322L17.5558 6.80999L17.0934 6.11675C16.9479 6.21383 16.8204 6.3147 16.7191 6.39519C16.6107 6.48131 16.5333 6.5432 16.4516 6.59979L16.9258 7.28499Z" fill="#F3F4F6"/>
</g>
<path d="M24.3867 14.1665V5.94629H29.2631V6.64697H25.1615V9.74025H28.9326V10.4295H25.1615V14.1665H24.3867ZM34.2391 14.3374C33.4645 14.3374 32.7998 14.1627 32.2454 13.8133C31.6909 13.4639 31.2636 12.9703 30.9636 12.3322C30.6636 11.6903 30.5136 10.9328 30.5136 10.0593V10.0478C30.5136 9.17059 30.6636 8.41292 30.9636 7.7749C31.2675 7.13688 31.6966 6.64507 32.2511 6.29948C32.8093 5.95009 33.4721 5.77539 34.2391 5.77539C35.0063 5.77539 35.6671 5.95009 36.2216 6.29948C36.7799 6.64507 37.209 7.13878 37.5091 7.7806C37.8091 8.41859 37.9591 9.17434 37.9591 10.0478V10.0593C37.9591 10.9328 37.8091 11.6885 37.5091 12.3265C37.209 12.9645 36.7799 13.4601 36.2216 13.8133C35.6671 14.1627 35.0063 14.3374 34.2391 14.3374ZM34.2391 13.6197C34.8392 13.6197 35.3576 13.4734 35.7944 13.181C36.2311 12.8848 36.5691 12.4708 36.8083 11.9391C37.0476 11.4037 37.1672 10.777 37.1672 10.0593V10.0478C37.1672 9.3225 37.0476 8.69392 36.8083 8.16227C36.5691 7.63059 36.2311 7.22043 35.7944 6.9318C35.3576 6.63938 34.8392 6.49316 34.2391 6.49316C33.6391 6.49316 33.1188 6.63938 32.6783 6.9318C32.2416 7.22043 31.9036 7.63059 31.6643 8.16227C31.4251 8.69392 31.3054 9.3225 31.3054 10.0478V10.0593C31.3054 10.777 31.4231 11.4037 31.6586 11.9391C31.8941 12.4708 32.2301 12.8848 32.6669 13.181C33.1075 13.4734 33.6316 13.6197 34.2391 13.6197ZM42.7985 14.3374C42.1415 14.3374 41.5756 14.2121 41.1009 13.9614C40.6261 13.707 40.2596 13.3557 40.0014 12.9076C39.747 12.4556 39.6197 11.9315 39.6197 11.3353V5.94629H40.3945V11.2898C40.3945 11.753 40.4894 12.1594 40.6793 12.5088C40.873 12.8582 41.1483 13.1316 41.5053 13.3291C41.8661 13.5228 42.2971 13.6197 42.7985 13.6197C43.3036 13.6197 43.7346 13.5228 44.0916 13.3291C44.4524 13.1316 44.7277 12.8582 44.9176 12.5088C45.1075 12.1594 45.2024 11.753 45.2024 11.2898V5.94629H45.9771V11.3353C45.9771 11.9315 45.85 12.4556 45.5955 12.9076C45.3411 13.3595 44.9765 13.7108 44.5017 13.9614C44.0271 14.2121 43.4592 14.3374 42.7985 14.3374ZM47.9626 14.1665V5.94629H48.7316L53.7218 13.0613L53.1863 12.7765H53.5965V5.94629H54.3598V14.1665H53.6136L48.6006 7.04574L49.1417 7.33057H48.7316V14.1665H47.9626ZM56.3566 14.1665V5.94629H59.0625C59.898 5.94629 60.6044 6.11149 61.1816 6.4419C61.7627 6.7723 62.2032 7.24322 62.5033 7.85465C62.8071 8.46609 62.959 9.19717 62.959 10.0478V10.0593C62.959 10.9099 62.8071 11.6429 62.5033 12.2582C62.2032 12.8696 61.7646 13.3405 61.1874 13.6709C60.6101 14.0013 59.9018 14.1665 59.0625 14.1665H56.3566ZM57.1314 13.4658H59.017C59.6891 13.4658 60.2588 13.331 60.7259 13.0613C61.1968 12.7879 61.5557 12.3968 61.8025 11.8878C62.0495 11.3789 62.1729 10.7713 62.1729 10.0649V10.0536C62.1729 9.34717 62.0476 8.7395 61.7969 8.23063C61.5501 7.72174 61.1911 7.33057 60.7202 7.05713C60.2531 6.78369 59.6853 6.64697 59.017 6.64697H57.1314V13.4658ZM64.6254 14.1665V5.94629H67.5648C68.1003 5.94629 68.5636 6.04503 68.9548 6.24251C69.3497 6.44 69.6555 6.71723 69.872 7.07422C70.0884 7.4312 70.1966 7.85465 70.1966 8.34459V8.35592C70.1966 8.93325 70.0391 9.42884 69.7238 9.84275C69.4124 10.2529 68.9814 10.5302 68.4307 10.6745L70.4246 14.1665H69.5187L67.6275 10.7941C67.6047 10.7979 67.5781 10.7998 67.5477 10.7998C67.5211 10.7998 67.4926 10.7998 67.4623 10.7998H65.4001V14.1665H64.6254ZM65.4001 10.1105H67.5021C68.1022 10.1105 68.5674 9.95859 68.8978 9.65475C69.2321 9.351 69.3991 8.92559 69.3991 8.37875V8.36734C69.3991 7.82807 69.2282 7.40652 68.8865 7.1027C68.5446 6.79509 68.0737 6.64128 67.4736 6.64128H65.4001V10.1105ZM74.0391 14.1665V10.6118L71.0883 5.94629H71.977L74.3923 9.82H74.4607L76.8704 5.94629H77.7591L74.8139 10.6118V14.1665H74.0391ZM88.1212 14.1665L83.9229 9.6605C83.6154 9.32625 83.3721 9.04142 83.1938 8.806C83.0191 8.5705 82.8938 8.35592 82.8179 8.16227C82.7457 7.96859 82.7096 7.7673 82.7096 7.55843V7.54704C82.7096 7.20904 82.7989 6.90712 82.9774 6.64128C83.1558 6.37544 83.3987 6.16656 83.7062 6.01465C84.0137 5.85894 84.3612 5.78109 84.7487 5.78109C85.1362 5.78109 85.4821 5.85894 85.7854 6.01465C86.0896 6.16656 86.3287 6.37544 86.5037 6.64128C86.6779 6.90712 86.7654 7.20904 86.7654 7.54704V7.55843C86.7654 7.83187 86.7012 8.09201 86.5721 8.33884C86.4462 8.58192 86.2362 8.82117 85.9396 9.05667C85.6471 9.29209 85.2537 9.53709 84.7604 9.7915L84.3329 9.3415C84.7587 9.13259 85.0946 8.93325 85.3412 8.74334C85.5879 8.55342 85.7646 8.36542 85.8712 8.17936C85.9812 7.98948 86.0362 7.792 86.0362 7.58691V7.57552C86.0362 7.35145 85.9796 7.15207 85.8654 6.97738C85.7554 6.79888 85.6037 6.66026 85.4096 6.56152C85.2196 6.45899 84.9996 6.40771 84.7487 6.40771C84.5062 6.40771 84.2854 6.45899 84.0879 6.56152C83.8946 6.66406 83.7387 6.80458 83.6212 6.98307C83.5071 7.15777 83.4504 7.35905 83.4504 7.58691V7.5983C83.4504 7.7654 83.4846 7.92871 83.5529 8.08821C83.6212 8.24392 83.7354 8.42242 83.8946 8.62367C84.0537 8.82117 84.2762 9.068 84.5612 9.36425L89.1012 14.1608V14.1665H88.1212ZM84.4929 14.3089C83.9646 14.3089 83.4954 14.2121 83.0856 14.0184C82.6792 13.8209 82.3621 13.5513 82.1342 13.2095C81.9064 12.8638 81.7925 12.4689 81.7925 12.0246V12.0132C81.7925 11.5461 81.9235 11.1264 82.1856 10.7543C82.4514 10.3821 82.8634 10.0554 83.4221 9.77442L83.9687 9.49525L84.4071 9.97384L83.8604 10.2473C83.4354 10.4599 83.1121 10.7143 82.8919 11.0106C82.6755 11.3068 82.5672 11.6278 82.5672 11.9733V11.9847C82.5672 12.3037 82.6489 12.5885 82.8121 12.8392C82.9792 13.0898 83.2128 13.2873 83.5129 13.4317C83.8129 13.5759 84.1604 13.6481 84.5554 13.6481C84.8779 13.6481 85.1854 13.6007 85.4779 13.5057C85.7746 13.4108 86.0479 13.274 86.2987 13.0955C86.5487 12.9133 86.7696 12.6948 86.9596 12.4404C87.1987 12.1138 87.3812 11.7303 87.5062 11.2898C87.6354 10.8492 87.6996 10.3707 87.6996 9.85417V9.59209H88.4287V9.85417C88.4287 10.4884 88.3471 11.0694 88.1837 11.5973C88.0246 12.1253 87.7887 12.5828 87.4779 12.9703C87.1279 13.3993 86.6971 13.7298 86.1846 13.9614C85.6754 14.1931 85.1121 14.3089 84.4929 14.3089ZM94.1221 14.1665V5.94629H99.7154V7.62679H96.2121V9.501H99.3971V11.1018H96.2121V14.1665H94.1221ZM105.202 14.3887C104.375 14.3887 103.657 14.214 103.049 13.8646C102.441 13.5114 101.972 13.012 101.642 12.3663C101.312 11.7208 101.146 10.9518 101.146 10.0593V10.0478C101.146 9.15917 101.314 8.392 101.648 7.74642C101.982 7.097 102.451 6.5976 103.055 6.24821C103.662 5.89882 104.379 5.72412 105.202 5.72412C106.026 5.72412 106.74 5.89882 107.345 6.24821C107.952 6.5976 108.421 7.097 108.751 7.74642C109.085 8.392 109.253 9.15917 109.253 10.0478V10.0593C109.253 10.9518 109.085 11.7208 108.751 12.3663C108.421 13.012 107.952 13.5114 107.345 13.8646C106.74 14.214 106.026 14.3887 105.202 14.3887ZM105.202 12.6569C105.586 12.6569 105.922 12.5506 106.21 12.3379C106.5 12.1214 106.724 11.8195 106.883 11.4322C107.042 11.0409 107.122 10.5833 107.122 10.0593V10.0478C107.122 9.52 107.042 9.06234 106.883 8.675C106.724 8.2876 106.5 7.98758 106.21 7.7749C105.922 7.56223 105.586 7.4559 105.202 7.4559C104.819 7.4559 104.483 7.56223 104.195 7.7749C103.905 7.98758 103.68 8.2876 103.516 8.675C103.357 9.06234 103.277 9.52 103.277 10.0478V10.0593C103.277 10.5833 103.357 11.0409 103.516 11.4322C103.675 11.8195 103.9 12.1214 104.189 12.3379C104.477 12.5506 104.815 12.6569 105.202 12.6569ZM111.088 14.1665V5.94629H114.66C115.335 5.94629 115.904 6.05452 116.363 6.271C116.826 6.48747 117.178 6.79888 117.417 7.20524C117.656 7.6078 117.775 8.09201 117.775 8.65784V8.66925C117.775 9.17059 117.655 9.632 117.411 10.0536C117.168 10.4751 116.823 10.7846 116.375 10.9821L118.015 14.1665H115.668L114.261 11.2954C114.245 11.2954 114.229 11.2954 114.21 11.2954C114.195 11.2954 114.18 11.2954 114.164 11.2954H113.179V14.1665H111.088ZM113.179 9.85984H114.426C114.802 9.85984 115.099 9.75542 115.315 9.54659C115.531 9.33767 115.64 9.05475 115.64 8.69775V8.68634C115.64 8.34075 115.53 8.06163 115.309 7.84896C115.089 7.63249 114.79 7.52425 114.415 7.52425H113.179V9.85984ZM123.394 14.3887C122.763 14.3887 122.197 14.2899 121.696 14.0924C121.195 13.895 120.77 13.6102 120.42 13.2379C120.07 12.862 119.803 12.4063 119.616 11.8708C119.435 11.3353 119.343 10.7296 119.343 10.0536V10.0422C119.343 9.1535 119.505 8.38634 119.827 7.74072C120.15 7.0951 120.61 6.5976 121.206 6.24821C121.806 5.89882 122.516 5.72412 123.336 5.72412C124.009 5.72412 124.61 5.84565 125.142 6.0887C125.674 6.33176 126.105 6.66786 126.435 7.097C126.77 7.52235 126.971 8.01416 127.04 8.57242L127.045 8.62942H124.983L124.971 8.57809C124.884 8.23253 124.692 7.9591 124.396 7.75781C124.104 7.55653 123.75 7.4559 123.336 7.4559C122.949 7.4559 122.615 7.56033 122.334 7.7692C122.057 7.97429 121.844 8.26861 121.696 8.65217C121.548 9.03192 121.474 9.48767 121.474 10.0193V10.0308C121.474 10.4371 121.52 10.8017 121.61 11.1245C121.701 11.4473 121.833 11.7227 122.004 11.9505C122.178 12.1784 122.385 12.3531 122.625 12.4746C122.868 12.5962 123.139 12.6569 123.439 12.6569C123.755 12.6569 124.034 12.5999 124.276 12.486C124.523 12.3683 124.717 12.205 124.858 11.9961C125.002 11.7834 125.081 11.5366 125.097 11.2555L125.108 11.1188H123.61V9.67759H127.13V10.7428C127.13 11.3087 127.045 11.8176 126.874 12.2695C126.703 12.7177 126.456 13.0993 126.134 13.4146C125.81 13.7298 125.418 13.9709 124.955 14.138C124.495 14.3051 123.975 14.3887 123.394 14.3887ZM128.965 14.1665V5.94629H134.6V7.62679H131.056V9.26742H134.389V10.8055H131.056V12.486H134.6V14.1665H128.965Z" fill="#F9FAFB"/>
<path d="M9.81311 5.89014H10.1589C10.2048 5.90396 10.3006 5.90457 10.3531 5.91133C10.4868 5.9282 10.6192 5.95373 10.7494 5.98776C11.5217 6.19119 12.1813 6.69352 12.5827 7.38392C12.7635 7.69441 12.8865 8.03506 12.946 8.38939C12.9579 8.45653 12.967 8.52416 12.9731 8.59208C12.976 8.62145 12.9807 8.70557 12.9883 8.72901V9.05373C12.9723 9.10746 12.9733 9.21114 12.9644 9.27135C12.9457 9.39867 12.9242 9.52164 12.8917 9.64629C12.6891 10.4194 12.1874 11.0801 11.497 11.4828C11.1928 11.6607 10.8596 11.7835 10.5127 11.8454C10.4726 11.8525 10.4271 11.8596 10.3884 11.8653C10.3461 11.8715 10.195 11.8795 10.1649 11.8901H9.8151C9.78931 11.8813 9.73337 11.8793 9.70427 11.8766C9.33965 11.8424 8.97035 11.739 8.64387 11.5723C7.88085 11.1892 7.31673 10.4998 7.09237 9.67605C7.05941 9.55425 7.03404 9.43053 7.01642 9.30558C7.01104 9.26601 7.00665 9.22632 7.00325 9.18651C7.00078 9.15783 6.99769 9.09201 6.98828 9.06621V8.71159C6.99722 8.68912 7.00462 8.57365 7.00832 8.54054C7.01459 8.48533 7.02253 8.43031 7.0321 8.37557C7.08594 8.06596 7.18826 7.76676 7.33532 7.48903C7.72582 6.74854 8.40821 6.20512 9.21733 5.99031C9.41349 5.93635 9.60933 5.91143 9.81065 5.89101C9.81147 5.89072 9.81229 5.89043 9.81311 5.89014ZM10.0348 11.5893C11.5252 11.5634 12.7126 10.3345 12.6872 8.84398C12.6617 7.35352 11.433 6.16579 9.94256 6.19085C8.45153 6.21593 7.26325 7.44518 7.28873 8.93622C7.3142 10.4272 8.54377 11.6152 10.0348 11.5893Z" fill="#F9FAFB"/>
<path d="M9.92285 6.6416C10.3817 6.61723 10.3474 6.93002 10.4785 7.24707C10.5263 7.36263 10.5968 7.46103 10.6992 7.53418C10.88 7.6633 11.0759 7.67034 11.2861 7.62402C11.3684 7.6059 11.4501 7.58227 11.5332 7.56836C11.6382 7.55082 11.7392 7.55391 11.8281 7.61816C11.9203 7.68486 11.9977 7.81675 12.0156 7.92871C12.024 7.98174 12.0199 8.03556 12.001 8.08594C11.9426 8.24123 11.7444 8.38583 11.6436 8.52734C11.5689 8.63211 11.5254 8.74888 11.5195 8.87793C11.4986 9.34509 11.967 9.46318 12.0146 9.75684C12.0327 9.86928 11.9807 9.98326 11.916 10.0723C11.7409 10.313 11.5049 10.2025 11.2676 10.1533C11.1626 10.1316 11.0597 10.1215 10.9531 10.1387C10.8579 10.1541 10.7701 10.1943 10.6924 10.251C10.5053 10.3876 10.4568 10.5954 10.3936 10.8037C10.372 10.8748 10.3479 10.9493 10.3037 11.0098C10.2416 11.0946 10.1608 11.1247 10.0605 11.1396C9.9932 11.1451 9.92284 11.1406 9.85742 11.123C9.67545 11.074 9.62 10.9194 9.57129 10.7559C9.54835 10.6789 9.5264 10.6006 9.49512 10.5264C9.44977 10.419 9.38301 10.324 9.28906 10.2539C9.09819 10.1115 8.89754 10.1104 8.67578 10.1611C8.5913 10.1805 8.50683 10.2048 8.4209 10.2168C8.32043 10.2308 8.2242 10.221 8.1416 10.1582C8.05025 10.0885 7.97343 9.95471 7.95898 9.84082C7.93759 9.67066 8.06006 9.54857 8.16895 9.43652C8.22012 9.38385 8.27136 9.3316 8.31641 9.27344C8.3978 9.16823 8.4492 9.0455 8.45703 8.91211C8.4848 8.43405 7.99718 8.30973 7.96094 8.01758C7.9462 7.89815 8.00252 7.78254 8.07422 7.69043C8.24118 7.4761 8.477 7.5779 8.69629 7.625C8.79725 7.64667 8.8988 7.65986 9.00195 7.64648C9.10454 7.63313 9.20379 7.58956 9.28613 7.52734C9.48025 7.38056 9.51952 7.17817 9.58691 6.96094C9.60861 6.89105 9.63412 6.81789 9.67969 6.75977C9.7433 6.67869 9.8242 6.65391 9.92285 6.6416ZM9.9873 7.88965C9.43536 7.88991 8.98749 8.33768 8.9873 8.88965C8.9873 9.44177 9.43524 9.88939 9.9873 9.88965C10.5396 9.88965 10.9873 9.44193 10.9873 8.88965C10.9871 8.33752 10.5395 7.88965 9.9873 7.88965Z" fill="#F9FAFB"/>
</svg>
